<svg width="180" height="180" viewBox="0 0 180 180" fill="none" xmlns="http://www.w3.org/2000/svg">
  <defs>
    <linearGradient id="bg" x1="24" y1="18" x2="160" y2="162" gradientUnits="userSpaceOnUse">
      <stop stop-color="#14B8A6" />
      <stop offset="1" stop-color="#155E75" />
    </linearGradient>
    <linearGradient id="badge" x1="118" y1="118" x2="157" y2="157" gradientUnits="userSpaceOnUse">
      <stop stop-color="#ECFEFF" />
      <stop offset="1" stop-color="#CFFAFE" />
    </linearGradient>
  </defs>
  <rect x="10" y="10" width="160" height="160" rx="40" fill="url(#bg)" />
  <path d="M91 33C66 33 47 53 47 77C47 104 68 121 88 139C90 141 92 141 94 139C114 121 135 104 135 77C135 53 116 33 91 33Z" fill="#F0FDFA" />
  <circle cx="91" cy="74" r="11" fill="#115E59" />
  <path d="M91 51V113" stroke="#115E59" stroke-width="4" stroke-linecap="round" />
  <path d="M76 60H106" stroke="#115E59" stroke-width="3" stroke-linecap="round" />
  <path d="M72 72H110" stroke="#115E59" stroke-width="3" stroke-linecap="round" />
  <path d="M74 84H108" stroke="#115E59" stroke-width="3" stroke-linecap="round" />
  <circle cx="136" cy="136" r="20" fill="url(#badge)" />
  <path d="M128 144V128H132L136 137L140 128H144V144H140V135L137 142H135L132 135V144H128Z" fill="#155E75" />
</svg>
