<svg width="180" height="180" viewBox="0 0 180 180" fill="none" xmlns="http://www.w3.org/2000/svg">
  <defs>
    <linearGradient id="bg" x1="24" y1="18" x2="156" y2="162" gradientUnits="userSpaceOnUse">
      <stop stop-color="#F59E0B" />
      <stop offset="1" stop-color="#C2410C" />
    </linearGradient>
    <linearGradient id="badge" x1="118" y1="118" x2="157" y2="157" gradientUnits="userSpaceOnUse">
      <stop stop-color="#111827" />
      <stop offset="1" stop-color="#1F2937" />
    </linearGradient>
  </defs>
  <rect x="10" y="10" width="160" height="160" rx="40" fill="url(#bg)" />
  <path d="M91 33C66 33 47 53 47 77C47 104 68 121 88 139C90 141 92 141 94 139C114 121 135 104 135 77C135 53 116 33 91 33Z" fill="#FFF7ED" />
  <circle cx="91" cy="74" r="11" fill="#7C2D12" />
  <path d="M91 51V113" stroke="#7C2D12" stroke-width="4" stroke-linecap="round" />
  <path d="M76 60H106" stroke="#7C2D12" stroke-width="3" stroke-linecap="round" />
  <path d="M72 72H110" stroke="#7C2D12" stroke-width="3" stroke-linecap="round" />
  <path d="M74 84H108" stroke="#7C2D12" stroke-width="3" stroke-linecap="round" />
  <circle cx="136" cy="136" r="20" fill="url(#badge)" />
  <path d="M128 144V128H137C141 128 144 130 144 134C144 138 141 140 137 140H132V144H128ZM132 136H136C138 136 140 135 140 134C140 132 138 132 136 132H132V136Z" fill="#F8FAFC" />
</svg>
