<svg width="180" height="180" viewBox="0 0 180 180" fill="none" xmlns="http://www.w3.org/2000/svg">
  <defs>
    <linearGradient id="bg" x1="24" y1="18" x2="160" y2="162" gradientUnits="userSpaceOnUse">
      <stop stop-color="#DC2626" />
      <stop offset="1" stop-color="#7F1D1D" />
    </linearGradient>
    <linearGradient id="badge" x1="118" y1="118" x2="157" y2="157" gradientUnits="userSpaceOnUse">
      <stop stop-color="#FEE2E2" />
      <stop offset="1" stop-color="#FECACA" />
    </linearGradient>
  </defs>
  <rect x="10" y="10" width="160" height="160" rx="40" fill="url(#bg)" />
  <path d="M91 33C66 33 47 53 47 77C47 104 68 121 88 139C90 141 92 141 94 139C114 121 135 104 135 77C135 53 116 33 91 33Z" fill="#FEF2F2" />
  <circle cx="91" cy="74" r="11" fill="#991B1B" />
  <path d="M91 51V113" stroke="#991B1B" stroke-width="4" stroke-linecap="round" />
  <path d="M76 60H106" stroke="#991B1B" stroke-width="3" stroke-linecap="round" />
  <path d="M72 72H110" stroke="#991B1B" stroke-width="3" stroke-linecap="round" />
  <path d="M74 84H108" stroke="#991B1B" stroke-width="3" stroke-linecap="round" />
  <circle cx="136" cy="136" r="20" fill="url(#badge)" />
  <path d="M143 131C143 129 141 128 138 128H131V136H138C140 136 141 137 141 138C141 140 139 140 138 140H131V144H138C142 144 145 142 145 138C145 136 144 134 142 133C143 132 143 132 143 131ZM135 132H138C139 132 139 132 139 133C139 134 139 134 138 134H135V132ZM138 140H135V138H138C139 138 141 138 141 139C141 140 139 140 138 140Z" fill="#991B1B" />
</svg>
